<?xml version="1.0" standalone="no"?>
<!DOCTYPE svg PUBLIC "-//W3C//DTD SVG 20010904//EN"
 "http://www.w3.org/TR/2001/REC-SVG-20010904/DTD/svg10.dtd">
<svg version="1.0" xmlns="http://www.w3.org/2000/svg"
 width="460.000000pt" height="460.000000pt" viewBox="0 0 460.000000 460.000000"
 preserveAspectRatio="xMidYMid meet">
<metadata>
Created by potrace 1.14, written by Peter Selinger 2001-2017
</metadata>
<g transform="translate(0.000000,460.000000) scale(0.100000,-0.100000)"
fill="#000000" stroke="none">
<path d="M0 2300 l0 -2300 2300 0 2300 0 0 2300 0 2300 -2300 0 -2300 0 0
-2300z m3001 1442 l255 -8 42 -32 c89 -71 103 -119 137 -487 14 -148 34 -358
45 -465 11 -107 20 -221 20 -252 0 -74 41 -198 88 -267 20 -30 60 -73 88 -95
151 -119 223 -174 261 -200 24 -16 65 -56 92 -89 40 -49 51 -71 61 -122 16
-86 16 -150 -1 -169 -8 -8 -41 -58 -74 -111 -33 -52 -67 -97 -77 -100 -9 -3
-19 -16 -22 -29 -4 -18 -17 -27 -53 -36 -27 -8 -153 -51 -282 -97 -174 -62
-242 -82 -265 -78 -34 6 -64 -3 -326 -95 -96 -34 -202 -70 -235 -80 -33 -10
-130 -44 -215 -75 -85 -31 -202 -71 -260 -89 -58 -19 -170 -57 -250 -86 -187
-67 -238 -80 -333 -80 -66 0 -86 4 -135 29 -31 16 -68 44 -81 61 -30 38 -81
146 -81 170 0 10 -7 24 -16 31 -9 8 -37 57 -61 109 -25 52 -72 151 -105 220
-34 69 -82 171 -109 227 -26 55 -88 184 -138 285 -49 101 -117 255 -151 343
l-61 160 1 385 c1 212 5 511 8 665 7 274 8 282 32 330 16 31 43 61 75 84 l50
36 170 5 c261 9 1618 10 1906 2z"/>
<path d="M3207 3483 c-13 -12 -7 -43 8 -43 9 0 15 9 15 25 0 24 -10 32 -23 18z"/>
<path d="M2715 3430 c-71 -4 -224 -11 -340 -15 -115 -3 -232 -8 -260 -10 -27
-2 -115 -7 -195 -10 -168 -7 -284 -22 -320 -40 -34 -18 -82 -73 -70 -80 6 -4
7 -11 4 -17 -4 -6 -2 -8 3 -5 17 11 35 -51 22 -74 -16 -30 -4 -37 53 -28 214
31 238 32 238 10 0 -8 -76 -29 -133 -36 -21 -2 -42 -7 -47 -10 -6 -4 -38 -9
-73 -12 -34 -3 -66 -8 -70 -13 -33 -30 33 -754 74 -811 24 -34 74 -54 173 -69
222 -33 902 73 1073 168 79 43 134 102 144 152 16 80 23 447 10 544 -12 86
-11 89 10 113 13 13 29 21 37 18 7 -2 10 0 7 5 -3 6 -1 11 4 11 6 1 16 3 21 4
6 1 18 3 28 4 15 1 15 3 2 11 -13 8 -12 10 3 10 9 0 17 7 17 15 0 8 4 15 9 15
4 0 -2 21 -16 47 -57 115 -83 121 -408 103z m-390 -195 c44 -3 92 -5 108 -5
32 0 36 -20 7 -38 -18 -11 -224 -25 -392 -26 -32 -1 -58 -4 -58 -7 0 -4 -23
-9 -50 -13 -28 -4 -57 -9 -65 -12 -9 -4 -15 0 -15 10 0 9 8 16 18 17 20 1 57
7 90 14 12 3 22 11 22 19 0 37 73 57 185 50 39 -3 106 -7 150 -9z m285 -20 c0
-12 -14 -15 -65 -15 -51 0 -65 3 -65 15 0 12 14 15 65 15 51 0 65 -3 65 -15z
m-420 -69 c0 -13 -19 -18 -122 -32 -33 -5 -38 -3 -38 15 0 12 5 18 13 16 10
-4 62 1 140 14 4 0 7 -5 7 -13z m-180 -30 c0 -9 -18 -17 -52 -22 -99 -13 -98
-13 -98 6 0 12 6 17 18 14 9 -3 35 -1 57 5 58 13 75 13 75 -3z m330 -21 c0 -8
-8 -13 -17 -13 -10 1 -30 -2 -45 -5 -23 -6 -28 -4 -28 11 0 14 8 19 31 20 17
0 33 3 36 6 9 8 23 -4 23 -19z m70 9 c0 -8 -6 -14 -14 -14 -8 0 -21 -3 -30 -6
-11 -4 -16 0 -16 13 0 15 7 20 30 21 20 0 30 -4 30 -14z m-200 -22 c0 -14 -8
-19 -32 -19 -18 0 -59 -4 -90 -8 -48 -6 -58 -5 -58 7 0 11 20 17 73 25 108 15
107 15 107 -5z m-200 -26 c0 -9 -16 -17 -42 -21 -24 -3 -58 -9 -75 -12 -26 -4
-33 -2 -33 11 0 9 6 16 13 17 28 1 102 11 106 15 10 10 31 3 31 -10z m544 0
c-5 -13 -34 -31 -34 -21 0 5 30 35 35 35 3 0 2 -6 -1 -14z m42 -50 c-5 -33
-11 -42 -27 -43 -29 -3 -36 -12 -19 -24 11 -8 12 -12 3 -16 -7 -2 -13 -19 -14
-36 0 -18 -3 -26 -6 -19 -2 6 -13 12 -24 12 -10 0 -19 5 -19 10 0 6 10 10 23
10 16 0 18 3 8 9 -7 5 -21 7 -30 6 -9 -2 -21 -4 -27 -4 -7 -1 -9 -12 -6 -26 4
-23 2 -25 -27 -23 -36 3 -35 2 -18 28 8 15 9 23 1 28 -6 4 -14 28 -17 55 l-7
47 42 0 c33 0 39 -3 30 -12 -17 -17 -15 -28 7 -28 23 0 36 -16 21 -25 -16 -10
-48 4 -53 23 -3 9 -5 -1 -6 -23 0 -22 3 -35 7 -29 10 16 62 24 63 10 0 -7 3
-6 6 2 2 6 8 10 12 7 5 -2 6 6 4 18 -4 20 0 23 24 21 15 0 31 4 35 10 11 17
10 58 -2 51 -5 -3 -10 -2 -10 4 0 13 24 20 29 9 1 -5 0 -28 -3 -52z m-226 28
c0 -11 -9 -15 -32 -13 -18 1 -41 -2 -51 -6 -21 -9 -43 8 -32 24 3 6 9 9 13 7
4 -2 25 -1 47 3 46 9 55 6 55 -15z m35 16 c3 -5 1 -10 -4 -10 -6 0 -11 5 -11
10 0 6 2 10 4 10 3 0 8 -4 11 -10z m-215 -17 c0 -14 -14 -29 -32 -36 -11 -4
-15 -13 -11 -27 5 -19 11 -21 50 -16 39 4 43 3 32 -10 -9 -11 -9 -18 -1 -26
15 -15 16 -38 2 -38 -5 0 -10 9 -10 19 0 22 -21 33 -41 21 -8 -6 -16 -4 -21 3
-5 8 -8 6 -8 -6 0 -15 5 -17 30 -12 22 5 30 3 30 -7 0 -10 -12 -14 -37 -13
-24 1 -37 6 -35 13 1 7 -8 12 -20 12 -19 0 -20 2 -8 10 13 8 13 13 2 31 -12
18 -11 23 5 35 13 9 14 13 4 14 -11 0 -11 3 -1 14 10 13 21 17 63 25 4 0 7 -2
7 -6z m40 -15 c0 -5 -4 -6 -10 -3 -5 3 -10 -1 -10 -10 0 -9 -7 -23 -15 -31
-13 -14 -15 -13 -15 6 0 12 5 18 10 15 6 -3 10 5 10 19 0 18 4 24 15 20 8 -4
15 -10 15 -16z m464 16 c31 -12 17 -31 -21 -30 -41 1 -56 22 -21 29 13 2 24 5
25 6 1 0 8 -2 17 -5z m-147 -36 c-3 -7 -5 -2 -5 12 0 14 2 19 5 13 2 -7 2 -19
0 -25z m-483 15 c-5 -5 -12 -12 -16 -18 -4 -6 -8 -2 -8 8 0 9 7 17 17 17 9 0
12 -3 7 -7z m451 -3 c3 -5 -3 -10 -14 -10 -12 0 -21 5 -21 10 0 6 6 10 14 10
8 0 18 -4 21 -10z m-508 -22 c-3 -8 -6 -5 -6 6 -1 11 2 17 5 13 3 -3 4 -12 1
-19z m292 -9 c-17 -11 -40 -8 -40 6 0 13 45 24 50 12 2 -5 -3 -13 -10 -18z
m73 11 c0 -11 1 -26 2 -32 1 -7 -5 -14 -11 -14 -30 -3 -33 -4 -33 -13 0 -5 8
-7 19 -4 18 5 39 -13 28 -24 -3 -3 -21 -7 -39 -8 -18 -2 -39 -3 -45 -4 -7 -1
-13 -5 -13 -10 0 -10 54 -7 83 4 13 6 17 2 17 -15 0 -18 -5 -21 -34 -19 -19 2
-38 0 -42 -4 -4 -4 -16 -7 -26 -7 -14 0 -18 8 -18 41 0 32 3 40 15 36 8 -4 17
-2 20 4 4 5 11 7 16 4 5 -4 9 5 9 19 0 14 6 26 13 27 10 0 10 2 0 6 -23 9 -14
33 12 33 18 0 25 -6 27 -20z m-394 -2 c-3 -7 -19 -13 -36 -13 -18 0 -32 -5
-32 -11 0 -6 12 -9 30 -6 24 3 30 0 31 -14 1 -11 3 -38 4 -62 2 -24 5 -45 7
-46 11 -9 78 8 78 20 0 8 -5 14 -11 14 -6 0 -9 15 -7 36 2 28 9 39 26 45 15 6
21 5 17 -1 -3 -6 2 -10 11 -10 16 0 16 -1 1 -18 -24 -26 -22 -68 3 -75 17 -4
18 -8 7 -31 -7 -14 -15 -26 -19 -26 -5 0 -8 -25 -8 -56 0 -55 -1 -56 -25 -52
-14 3 -25 2 -25 -2 0 -4 -10 -8 -22 -8 -13 1 -39 -2 -58 -5 -19 -3 -41 -6 -47
-6 -7 -1 -13 -6 -13 -12 0 -6 8 -8 18 -5 60 17 82 17 82 2 0 -15 -24 -24 -65
-24 -11 0 -27 -2 -35 -4 -11 -2 -16 8 -18 36 -3 32 -1 38 12 33 23 -9 46 2 45
22 0 10 -2 11 -6 4 -7 -18 -53 -17 -53 1 0 8 15 17 35 20 20 4 33 11 30 16 -3
5 -16 5 -31 -2 -18 -8 -28 -8 -35 -1 -14 14 -2 36 15 30 6 -3 20 1 30 9 17 12
15 13 -18 7 -36 -6 -36 -5 -36 30 0 36 0 36 53 43 42 6 47 9 27 14 -14 4 -33
3 -42 -2 -30 -15 -38 -8 -38 32 0 34 3 40 23 41 l22 2 -22 4 c-13 2 -23 11
-23 18 0 14 16 18 83 23 28 2 38 -1 35 -10z m842 -5 c0 -9 -15 -13 -45 -13
-49 0 -62 17 -17 22 50 6 62 4 62 -9z m-100 -3 c0 -5 -18 -10 -40 -10 -22 0
-40 5 -40 10 0 6 18 10 40 10 22 0 40 -4 40 -10z m-413 -35 c-8 -19 -47 -20
-47 -1 0 8 10 16 23 18 28 5 31 3 24 -17z m-277 11 c0 -2 -7 -7 -16 -10 -8 -3
-12 -2 -9 4 6 10 25 14 25 6z m760 -13 c0 -9 -20 -13 -66 -13 -36 0 -63 -4
-60 -9 3 -4 17 -6 31 -3 18 3 25 0 25 -11 0 -15 -44 -29 -65 -21 -7 3 -12 18
-12 34 0 32 7 35 95 35 35 0 52 -4 52 -12z m-183 -15 c-3 -8 -6 -5 -6 6 -1 11
2 17 5 13 3 -3 4 -12 1 -19z m-577 -14 c0 -16 -4 -23 -11 -18 -7 4 -9 0 -5
-14 4 -11 2 -23 -4 -27 -5 -3 -10 2 -10 12 0 10 -3 28 -6 40 -4 15 -1 22 13
26 10 3 19 5 21 6 1 0 2 -11 2 -25z m585 -14 c3 -5 1 -10 -4 -10 -6 0 -11 5
-11 10 0 6 2 10 4 10 3 0 8 -4 11 -10z m-495 -10 c0 -5 -4 -10 -10 -10 -5 0
-10 5 -10 10 0 6 5 10 10 10 6 0 10 -4 10 -10z m449 -52 c-14 -27 -11 -31 20
-25 27 6 30 3 36 -25 6 -23 3 -35 -9 -43 -17 -13 -23 -60 -6 -50 16 10 12 -11
-5 -25 -13 -10 -15 -9 -15 9 0 20 -9 25 -37 22 -7 -1 -13 6 -13 15 0 10 5 14
15 10 17 -6 18 0 5 29 -5 11 -9 14 -9 7 -1 -7 -5 -10 -11 -7 -5 3 -10 2 -10
-3 0 -5 -12 -9 -27 -8 -16 1 -26 6 -24 11 1 6 7 9 12 8 5 -2 9 4 9 13 0 8 4
13 9 10 5 -3 8 2 7 12 -1 11 5 16 18 14 14 -3 17 1 12 14 -3 9 -4 25 -1 35 5
15 9 16 20 6 8 -8 10 -18 4 -29z m255 27 c4 -12 -4 -15 -39 -15 -33 0 -45 4
-45 15 0 11 11 15 39 15 25 0 41 -5 45 -15z m-604 -16 c0 -5 -10 -14 -22 -19
-13 -5 -17 -9 -10 -9 24 -2 -16 -32 -48 -38 -25 -3 -30 -1 -30 16 0 25 8 26
30 6 16 -14 18 -14 23 5 4 16 2 20 -9 16 -9 -4 -14 1 -14 15 0 11 3 18 8 16 4
-3 16 -1 27 3 23 8 45 3 45 -11z m395 11 c3 -5 1 -10 -4 -10 -6 0 -11 5 -11
10 0 6 2 10 4 10 3 0 8 -4 11 -10z m105 -2 c0 -8 -13 -13 -33 -12 -45 1 -49 3
-42 14 9 15 75 13 75 -2z m-187 -21 c3 -8 -6 -12 -23 -12 -24 -1 -27 2 -19 17
10 18 34 15 42 -5z m-113 -8 c0 -11 -4 -17 -10 -14 -5 3 -10 13 -10 21 0 8 5
14 10 14 6 0 10 -9 10 -21z m46 12 c12 10 13 9 8 -5 -6 -16 -44 -23 -44 -8 0
15 14 24 18 12 3 -8 8 -7 18 1z m-226 -16 c0 -8 -4 -15 -10 -15 -5 0 -7 7 -4
15 4 8 8 15 10 15 2 0 4 -7 4 -15z m137 -1 c0 -9 -13 -15 -39 -16 -21 -1 -45
-2 -55 -2 -26 -1 -27 22 -1 26 62 9 95 6 95 -8z m423 1 c0 -11 -12 -15 -45
-15 -41 0 -45 -2 -45 -24 0 -21 -5 -24 -35 -24 -42 0 -43 21 -2 26 15 2 27 8
27 14 0 6 -10 8 -24 4 -25 -6 -44 8 -26 19 5 3 10 0 10 -7 0 -10 2 -10 8 -1 4
6 32 13 62 16 30 2 58 4 63 5 4 1 7 -5 7 -13z m-560 -56 c6 -10 7 -19 3 -19
-4 0 -13 11 -20 25 -13 29 2 24 17 -6z m140 1 c0 -16 0 -33 0 -37 0 -5 -14 -8
-30 -9 -16 0 -33 -3 -36 -7 -13 -12 -44 -7 -44 7 0 15 32 26 61 21 10 -2 19 0
19 5 0 15 -31 20 -52 9 -16 -8 -22 -8 -29 2 -13 21 -1 28 41 26 22 -2 40 1 40
5 0 4 7 8 15 8 10 0 15 -10 15 -30z m103 23 c3 -5 -14 -9 -36 -11 -31 -1 -38
1 -27 8 18 11 57 13 63 3z m-266 -43 c6 -13 9 -29 5 -34 -3 -6 -9 -2 -12 10
-4 16 -12 20 -40 19 -19 0 -41 3 -47 8 -9 7 -13 4 -14 -9 -2 -31 2 -49 14 -56
7 -5 3 -8 -10 -8 -20 0 -23 5 -23 44 l0 43 39 -4 c23 -3 42 0 46 7 10 16 28 7
42 -20z m243 -2 c0 -10 -7 -18 -15 -18 -8 0 -15 8 -15 18 0 10 7 19 15 19 8 0
15 -9 15 -19z m360 3 c0 -13 -26 -21 -71 -21 -25 0 -39 5 -39 13 0 8 18 13 55
15 30 1 55 -2 55 -7z m-120 -18 c0 -8 -12 -13 -30 -13 -29 0 -41 15 -19 22 24
8 49 3 49 -9z m-540 -23 c0 -13 -5 -18 -15 -14 -8 4 -15 10 -15 16 0 5 5 6 10
3 6 -3 10 -1 10 4 0 6 2 11 5 11 3 0 5 -9 5 -20z m17 -2 c-3 -8 -6 -5 -6 6 -1
11 2 17 5 13 3 -3 4 -12 1 -19z m20 0 c-3 -8 -6 -5 -6 6 -1 11 2 17 5 13 3 -3
4 -12 1 -19z m333 5 c0 -15 -2 -16 -10 -3 -9 13 -10 13 -10 0 0 -9 -9 -16 -20
-16 -11 0 -20 7 -20 14 0 8 6 12 15 8 8 -3 15 -1 15 4 0 6 7 10 15 10 8 0 15
-8 15 -17z m-90 -7 c0 -8 -5 -18 -11 -22 -14 -8 -33 11 -25 25 10 16 36 13 36
-3z m17 -8 c-3 -8 -6 -5 -6 6 -1 11 2 17 5 13 3 -3 4 -12 1 -19z m-67 -5 c0
-7 -8 -14 -17 -14 -39 -3 -59 -6 -80 -13 -19 -6 -23 -4 -23 14 0 15 5 20 15
17 8 -4 16 -3 19 1 8 13 86 9 86 -5z m280 -3 c0 -5 -8 -10 -17 -10 -15 0 -16
2 -3 10 19 12 20 12 20 0z m-480 -26 c0 -8 -9 -14 -20 -14 -22 0 -26 10 -8 28
13 13 28 7 28 -14z m40 10 c0 -8 -4 -12 -10 -9 -5 3 -10 10 -10 16 0 5 5 9 10
9 6 0 10 -7 10 -16z m250 -16 c-13 -10 -30 -16 -37 -13 -8 3 -20 5 -26 5 -23
0 38 27 63 27 l24 1 -24 -20z m330 7 c0 -8 -7 -15 -15 -15 -8 0 -15 -9 -15
-20 0 -11 7 -20 15 -20 8 0 15 -6 15 -14 0 -13 -57 -28 -73 -19 -12 7 3 23 22
23 14 0 17 6 13 25 -3 20 -10 25 -33 25 -37 0 -38 17 -1 23 57 9 72 7 72 -8z
m-768 -18 c-12 -6 -25 -7 -29 -3 -11 10 18 25 35 18 13 -4 11 -8 -6 -15z m88
13 c0 -5 -4 -10 -9 -10 -6 0 -13 5 -16 10 -3 6 1 10 9 10 9 0 16 -4 16 -10z
m257 -5 c0 -17 0 -16 -42 -20 -16 -1 -40 -5 -52 -9 -17 -6 -23 -3 -23 8 0 9 8
17 18 18 9 0 29 2 45 3 15 1 30 5 34 9 11 11 20 7 20 -9z m315 -8 c5 -12 2
-24 -6 -33 -17 -17 -56 -19 -56 -3 0 6 7 8 16 5 8 -3 12 -2 9 3 -3 5 5 12 17
14 16 3 13 5 -11 6 -27 1 -31 4 -22 15 16 19 44 15 53 -7z m-612 -3 c0 -8 4
-13 8 -10 12 7 39 -27 34 -42 -3 -9 3 -10 22 -2 27 10 56 4 56 -11 0 -5 -6 -9
-12 -10 -10 0 -10 -2 0 -6 6 -2 13 -17 14 -31 1 -15 4 -4 7 25 5 44 9 51 21
43 13 -9 13 -11 0 -20 -10 -6 -11 -10 -2 -10 6 0 12 -9 12 -19 0 -11 -6 -22
-12 -24 -10 -4 -10 -8 0 -15 11 -7 8 -11 -10 -16 -18 -5 -20 -8 -8 -15 8 -5
18 -7 22 -5 4 3 8 -2 8 -10 0 -9 -4 -17 -10 -17 -5 -1 -14 -3 -20 -4 -5 -1
-23 -3 -40 -4 -23 -1 -30 -6 -30 -21 0 -11 4 -20 10 -20 5 0 7 7 3 16 -4 12 0
14 23 8 37 -9 43 -14 16 -14 -28 0 -29 -16 -2 -23 11 -3 20 -10 20 -16 0 -16
-16 -14 -34 4 -8 8 -23 15 -33 14 -10 0 -13 -3 -5 -6 6 -2 12 -9 12 -14 0 -6
-4 -7 -10 -4 -5 3 -10 3 -10 -2 0 -4 -11 -9 -25 -9 -31 -2 -31 3 0 28 28 22
33 48 10 48 -8 0 -15 5 -15 11 0 5 -4 7 -10 4 -5 -3 -10 -2 -10 3 0 6 11 13
24 16 18 4 23 11 20 33 -4 35 10 63 19 39 4 -9 2 -16 -4 -16 -6 0 -8 -4 -5 -9
3 -4 18 -6 33 -3 26 5 26 5 5 13 -12 5 -22 15 -22 23 0 16 -27 30 -32 16 -2
-6 -9 -6 -18 0 -12 7 -12 12 -2 22 19 19 14 30 -8 18 -17 -9 -20 -8 -20 9 0
11 -3 26 -6 35 -3 9 -1 16 5 16 6 0 11 -7 11 -16z m509 -16 c35 -25 21 -51
-23 -46 -19 2 -32 0 -30 -4 3 -4 1 -8 -5 -8 -6 0 -8 12 -5 29 6 28 5 30 -25
26 -17 -2 -31 0 -31 5 0 6 14 10 30 10 17 0 30 4 30 10 0 11 27 2 59 -22z
m-349 1 c0 -5 -9 -9 -20 -9 -11 0 -20 6 -20 14 0 9 7 12 20 9 11 -3 20 -9 20
-14z m-80 7 c0 -3 -4 -8 -10 -11 -5 -3 -10 -1 -10 4 0 6 5 11 10 11 6 0 10 -2
10 -4z m575 -6 c3 -5 1 -10 -4 -10 -6 0 -11 5 -11 10 0 6 2 10 4 10 3 0 8 -4
11 -10z m-676 -60 c-1 -33 -3 -60 -4 -60 -12 0 -45 42 -44 56 1 18 2 18 6 1 8
-31 28 -12 27 26 -1 21 3 37 8 37 4 0 7 -27 7 -60z m-82 29 c2 -18 -3 -20 -28
-17 -16 3 -32 1 -35 -4 -9 -14 -54 -9 -54 6 0 10 18 18 53 24 28 5 54 10 57
11 3 0 6 -8 7 -20z m43 5 c0 -8 -4 -12 -10 -9 -5 3 -10 10 -10 16 0 5 5 9 10
9 6 0 10 -7 10 -16z m360 0 c0 -8 -10 -14 -22 -14 -13 0 -40 -3 -60 -6 -30 -5
-38 -3 -38 9 0 16 20 22 83 24 26 1 37 -2 37 -13z m90 -19 c0 -29 -3 -30 -24
-9 -9 8 -20 12 -26 9 -15 -10 -12 -23 8 -28 15 -4 15 -5 0 -6 -9 0 -19 3 -23
9 -10 16 19 50 42 50 18 0 23 -6 23 -25z m40 0 c0 -8 -7 -15 -15 -15 -8 0 -15
7 -15 15 0 8 7 15 15 15 8 0 15 -7 15 -15z m198 -7 c-3 -7 -21 -14 -41 -16
-30 -3 -36 0 -31 12 8 20 78 23 72 4z m-330 -15 c2 -7 -5 -14 -15 -14 -17 -1
-17 -2 0 -6 14 -4 17 -12 13 -35 -6 -38 -6 -38 -49 -43 -20 -3 -42 -6 -48 -7
-6 -2 -14 3 -16 10 -3 7 4 12 19 13 l23 0 -22 9 c-13 5 -23 13 -23 18 0 11 58
24 71 16 5 -3 9 -1 9 5 0 14 -22 19 -47 10 -13 -5 -25 -4 -28 1 -8 12 4 32 14
26 4 -3 21 -1 37 4 37 11 56 9 62 -7z m-398 -8 c0 -8 -6 -15 -12 -16 -7 0 -32
-2 -55 -5 -36 -5 -43 -3 -43 11 0 11 5 15 15 12 8 -4 16 -3 19 1 3 4 21 9 40
10 27 2 36 -1 36 -13z m630 0 c0 -9 -10 -15 -27 -16 -70 -3 -89 -5 -100 -12
-8 -5 -13 -4 -13 2 0 6 0 14 0 18 0 4 14 9 32 11 18 2 35 6 37 8 2 2 19 4 38
4 23 0 33 -5 33 -15z m-516 -37 c7 -5 5 -8 -6 -8 -13 0 -18 7 -17 28 1 21 2
22 6 7 3 -11 10 -23 17 -27z m646 28 c0 -9 -7 -12 -20 -9 -11 3 -20 9 -20 14
0 5 9 9 20 9 11 0 20 -6 20 -14z m-66 -11 c3 -9 0 -15 -9 -15 -8 0 -15 -5 -15
-11 0 -6 7 -9 15 -5 9 3 15 0 15 -9 0 -8 -7 -15 -15 -15 -9 0 -15 -7 -13 -16
2 -10 -2 -19 -8 -21 -9 -3 -12 43 -5 100 2 13 29 7 35 -8z m-231 -7 c3 -8 -5
-14 -19 -14 -15 -1 -24 4 -24 12 0 17 36 19 43 2z m-463 -13 c0 -6 -6 -17 -12
-24 -9 -10 -9 -12 -1 -7 17 9 28 -15 12 -25 -10 -6 -11 -9 -1 -9 19 0 14 -28
-5 -33 -10 -3 -35 -5 -55 -6 -29 -1 -38 2 -38 14 0 9 6 15 13 14 6 -1 23 -1
36 0 34 1 17 15 -21 15 -27 1 -31 5 -34 35 -3 25 -1 32 10 28 8 -3 27 -2 43 2
39 11 53 10 53 -4z m595 -5 c0 -7 -13 -14 -30 -15 -16 -2 -37 -4 -45 -6 -8 -2
-15 3 -15 11 0 10 8 14 27 12 14 -1 29 2 33 8 9 14 30 7 30 -10z m216 5 c0
-12 -34 -23 -74 -24 -41 -1 -29 22 14 27 19 2 36 6 38 8 7 7 23 -1 22 -11z
m-681 -27 c0 -7 -22 -12 -42 -9 -11 1 -1 -71 12 -79 14 -9 -10 -20 -42 -20
-19 0 -19 2 -6 23 25 38 29 57 13 57 -8 0 -15 -9 -15 -21 0 -11 -4 -17 -10
-14 -5 3 -10 15 -10 26 0 10 5 19 10 19 6 0 10 6 10 13 0 7 15 12 40 13 22 0
40 -3 40 -8z m310 -9 c0 -5 -4 -9 -10 -9 -5 0 -10 7 -10 16 0 8 5 12 10 9 6
-3 10 -10 10 -16z m174 -7 c2 -4 -4 -8 -15 -8 -10 0 -19 4 -19 8 0 4 6 8 14 8
8 0 17 -4 20 -8z m-114 -11 c0 -6 -4 -13 -10 -16 -5 -3 -10 1 -10 9 0 9 5 16
10 16 6 0 10 -4 10 -9z m59 -8 c-13 -15 -11 -16 14 -9 19 4 27 3 27 -7 0 -8
-23 -18 -62 -25 -95 -18 -111 -18 -114 -4 -1 7 0 8 3 2 3 -6 10 -4 20 5 8 8
24 15 36 15 12 0 36 9 52 20 37 24 42 25 24 3z m-169 -31 c-9 -3 -9 -7 1 -13
20 -13 -8 -31 -39 -26 -12 3 -25 0 -28 -4 -3 -5 -12 -9 -20 -9 -20 0 -17 30 4
31 28 1 53 7 60 14 4 4 -12 4 -35 0 -35 -5 -43 -4 -43 9 0 14 16 19 90 29 18
3 27 -26 10 -31z m-263 -24 c-3 -8 -6 -5 -6 6 -1 11 2 17 5 13 3 -3 4 -12 1
-19z m-109 -28 c-1 -32 -1 -32 -38 -35 -14 -1 -35 -5 -47 -9 -16 -5 -23 -3
-23 7 0 7 17 18 38 24 l37 11 -40 -1 c-28 -1 -40 2 -40 12 0 9 15 15 45 18 25
3 47 6 49 8 10 10 20 -8 19 -35z m239 8 c-3 -8 -6 -5 -6 6 -1 11 2 17 5 13 3
-3 4 -12 1 -19z"/>
<path d="M2412 2960 c0 -19 2 -27 5 -17 2 9 2 25 0 35 -3 9 -5 1 -5 -18z"/>
<path d="M1893 2922 c-24 -4 -32 -22 -10 -22 15 0 43 18 37 22 -3 2 -15 2 -27
0z"/>
<path d="M1890 2830 c-23 -7 -23 -8 -3 -9 12 -1 25 4 28 9 3 6 5 10 3 9 -2 -1
-14 -5 -28 -9z"/>
<path d="M2545 2790 c-25 -11 1 -11 35 0 20 6 21 8 5 8 -11 0 -29 -3 -40 -8z"/>
<path d="M2170 2480 c0 -5 7 -10 15 -10 8 0 15 5 15 10 0 6 -7 10 -15 10 -8 0
-15 -4 -15 -10z"/>
<path d="M2558 2613 c6 -2 18 -2 25 0 6 3 1 5 -13 5 -14 0 -19 -2 -12 -5z"/>
<path d="M2320 2499 c0 -10 23 -17 38 -12 21 8 13 18 -13 18 -14 0 -25 -3 -25
-6z"/>
<path d="M1900 2482 c0 -5 14 -7 30 -4 17 2 30 6 30 8 0 2 -13 4 -30 4 -16 0
-30 -4 -30 -8z"/>
<path d="M1322 3413 c-19 -8 -3 -23 25 -23 21 0 24 2 13 15 -13 16 -17 17 -38
8z"/>
<path d="M3246 2794 c-3 -9 -6 -69 -6 -134 0 -129 6 -144 57 -138 23 2 28 7
25 28 -2 23 -7 29 -40 48 -34 21 26 60 62 40 13 -7 16 -4 16 18 0 45 -31 102
-62 115 -15 6 -28 18 -28 25 0 19 -16 18 -24 -2z"/>
<path d="M3320 2100 c0 -17 73 -80 93 -80 14 0 8 10 -30 45 -48 45 -63 53 -63
35z"/>
<path d="M3453 1993 c-6 -15 27 -53 47 -53 8 0 5 44 -5 59 -10 17 -35 13 -42
-6z"/>
<path d="M3533 1953 c-22 -8 -14 -41 15 -63 l27 -22 3 27 c4 30 -24 66 -45 58z"/>
<path d="M3607 1883 c-15 -14 -5 -40 23 -61 l30 -23 0 29 c0 16 -8 36 -18 45
-20 19 -26 20 -35 10z"/>
</g>
</svg>
